<svg width="11" height="11" viewBox="0 0 11 11" fill="none" xmlns="http://www.w3.org/2000/svg">
<path d="M10.0322 5.19277L5.23594 1.02998C5.19912 0.998242 5.15215 0.980469 5.10264 0.980469H3.9791C3.88516 0.980469 3.84199 1.09727 3.91309 1.1582L8.35898 5.01758H0.929688C0.873828 5.01758 0.828125 5.06328 0.828125 5.11914V5.88086C0.828125 5.93672 0.873828 5.98242 0.929688 5.98242H8.35771L3.91182 9.8418C3.84072 9.904 3.88389 10.0195 3.97783 10.0195H5.13945C5.16357 10.0195 5.1877 10.0106 5.20547 9.99414L10.0322 5.80723C10.0762 5.76901 10.1114 5.72181 10.1356 5.66881C10.1597 5.61581 10.1722 5.55824 10.1722 5.5C10.1722 5.44176 10.1597 5.38419 10.1356 5.33119C10.1114 5.27819 10.0762 5.23099 10.0322 5.19277Z" fill="white"/>
</svg>
