<svg width="31" height="32" viewBox="0 0 31 32" fill="none" xmlns="http://www.w3.org/2000/svg">
<rect y="0.5" width="31" height="31" rx="15.5" fill="#FFA501"/>
<rect y="0.5" width="31" height="31" rx="15.5" fill="url(#paint0_linear_43_237)"/>
<path d="M11.0003 12.929C10.9983 12.9774 11.0061 13.0258 11.0235 13.0711C11.0408 13.1164 11.0672 13.1576 11.1011 13.1923C11.1349 13.227 11.1755 13.2544 11.2204 13.2729C11.2652 13.2913 11.3133 13.3004 11.3618 13.2995H12.5993C12.8063 13.2995 12.9713 13.13 12.9983 12.9245C13.1333 11.9405 13.8083 11.2235 15.0113 11.2235C16.0403 11.2235 16.9823 11.738 16.9823 12.9755C16.9823 13.928 16.4213 14.366 15.5348 15.032C14.5253 15.7655 13.7258 16.622 13.7828 18.0125L13.7873 18.338C13.7889 18.4364 13.8291 18.5303 13.8993 18.5993C13.9694 18.6683 14.0639 18.707 14.1623 18.707H15.3788C15.4783 18.707 15.5737 18.6675 15.644 18.5972C15.7143 18.5268 15.7538 18.4315 15.7538 18.332V18.1745C15.7538 17.0975 16.1633 16.784 17.2688 15.9455C18.1823 15.251 19.1348 14.48 19.1348 12.8615C19.1348 10.595 17.2208 9.5 15.1253 9.5C13.2248 9.5 11.1428 10.385 11.0003 12.929ZM13.3358 21.5735C13.3358 22.373 13.9733 22.964 14.8508 22.964C15.7643 22.964 16.3928 22.373 16.3928 21.5735C16.3928 20.7455 15.7628 20.1635 14.8493 20.1635C13.9733 20.1635 13.3358 20.7455 13.3358 21.5735Z" fill="white"/>
<defs>
<linearGradient id="paint0_linear_43_237" x1="15.5" y1="0.5" x2="9.1164" y2="23.4047" gradientUnits="userSpaceOnUse">
<stop stop-color="#FF8B16"/>
<stop offset="1" stop-color="#FFCA1B"/>
</linearGradient>
</defs>
</svg>
