<svg width="21" height="21" viewBox="0 0 21 21" fill="none" xmlns="http://www.w3.org/2000/svg">
<path d="M19.6917 17.7186L18.093 16.1199C17.7594 15.7862 17.6892 15.2698 17.9287 14.8632C19.0222 13.0073 19.5157 10.7589 19.1212 8.37866C18.4356 4.24181 15.0228 0.971492 10.8618 0.451306C4.58892 -0.332889 -0.707157 4.96319 0.0770388 11.2361C0.597224 15.397 3.86754 18.8099 8.00439 19.4955C10.3847 19.89 12.6331 19.3964 14.489 18.303C14.8956 18.0635 15.412 18.1336 15.7456 18.4673L17.4183 20.14C17.7422 20.4642 18.1673 20.6263 18.592 20.6263C19.0571 20.6263 19.5226 20.432 19.8552 20.0432C20.4305 19.3708 20.3174 18.3442 19.6917 17.7186ZM3.40838 11.0722C2.69569 6.76173 6.38746 3.07003 10.6979 3.78271C13.3094 4.21445 15.4155 6.32069 15.8473 8.93218C16.56 13.2427 12.8683 16.9344 8.55784 16.2217C5.94642 15.7899 3.84018 13.6836 3.40838 11.0722Z" fill="#FF7300"/>
</svg>
