<svg width="24" height="25" viewBox="0 0 24 25" fill="none" xmlns="http://www.w3.org/2000/svg">
<path d="M11.9998 2.40088C14.8164 2.40088 17.0994 4.68384 17.0994 7.50049C17.0994 10.3171 14.8164 12.6001 11.9998 12.6001C9.18311 12.6001 6.90015 10.3171 6.90015 7.50049C6.90015 4.68384 9.18311 2.40088 11.9998 2.40088ZM11.9998 4.6001C10.3981 4.6001 9.09937 5.89887 9.09937 7.50049C9.09937 9.10211 10.3981 10.4009 11.9998 10.4009C13.6014 10.4009 14.9001 9.10211 14.9001 7.50049C14.9001 5.89887 13.6014 4.6001 11.9998 4.6001Z" fill="#FF7300" stroke="#FF7300" stroke-width="0.2"/>
<path d="M14.9998 14.4009C18.3687 14.4009 21.0994 17.1316 21.0994 20.5005V21.5005C21.0994 22.108 20.6073 22.6001 19.9998 22.6001C19.3922 22.6001 18.9001 22.108 18.9001 21.5005V20.5005C18.9001 18.3466 17.1536 16.6001 14.9998 16.6001H8.99976C6.84584 16.6001 5.09937 18.3466 5.09937 20.5005V21.5005C5.09937 22.108 4.60726 22.6001 3.99976 22.6001C3.39225 22.6001 2.90015 22.108 2.90015 21.5005V20.5005C2.90015 17.1316 5.63082 14.4009 8.99976 14.4009H14.9998Z" fill="#FF7300" stroke="#FF7300" stroke-width="0.2"/>
</svg>
