<svg width="20" height="21" viewBox="0 0 20 21" fill="none" xmlns="http://www.w3.org/2000/svg">
<path d="M19.3564 14.9C19.3018 14.8567 15.3331 11.996 14.2438 12.2013C13.7238 12.2933 13.4264 12.648 12.8298 13.358C12.7338 13.4727 12.5031 13.7473 12.3238 13.9427C11.9467 13.8197 11.5789 13.67 11.2231 13.4947C9.38677 12.6007 7.90308 11.117 7.00909 9.28067C6.83367 8.92495 6.68395 8.55712 6.56109 8.18C6.75709 8 7.03176 7.76933 7.14909 7.67067C7.85576 7.07733 8.21109 6.78 8.30309 6.25867C8.49176 5.17867 5.63309 1.18267 5.60309 1.14667C5.47339 0.961381 5.30412 0.807242 5.10754 0.695402C4.91095 0.583562 4.69197 0.516819 4.46642 0.5C3.30776 0.5 -0.000244141 4.79133 -0.000244141 5.514C-0.000244141 5.556 0.0604226 9.82533 5.32509 15.1807C10.6751 20.4393 14.9438 20.5 14.9858 20.5C15.7091 20.5 19.9998 17.192 19.9998 16.0333C19.9831 15.8086 19.9168 15.5903 19.8055 15.3943C19.6943 15.1983 19.5409 15.0295 19.3564 14.9Z" fill="#FF7300"/>
</svg>
