<svg width="20" height="21" viewBox="0 0 20 21" fill="none" xmlns="http://www.w3.org/2000/svg">
<g clip-path="url(#clip0_260_211)">
<path d="M11.2138 14.7126C11.2138 15.107 10.8941 15.4266 10.4998 15.4266H6.28714C5.89279 15.4266 5.57313 15.107 5.57313 14.7126C5.57313 14.3183 5.89279 13.9986 6.28714 13.9986H10.4998C10.8941 13.9986 11.2138 14.3183 11.2138 14.7126ZM19.639 5.65013V14.0105C19.639 15.1068 19.2121 16.1374 18.4369 16.9125L16.9123 18.4372C16.1371 19.2123 15.1065 19.6392 14.0103 19.6392H5.64989C3.27901 19.6392 1.36052 17.7205 1.36052 15.3499V5.65013C1.36052 3.27925 3.27922 1.36076 5.64989 1.36076H15.3496C17.7205 1.36076 19.639 3.27946 19.639 5.65013ZM18.1152 14.7245H16.1523C15.3649 14.7245 14.7243 15.3651 14.7243 16.1525V18.1154C15.1656 17.9941 15.5701 17.7598 15.9025 17.4274L17.4272 15.9028C17.7596 15.5703 17.9938 15.1658 18.1152 14.7245ZM18.211 5.65013C18.211 4.06858 16.9311 2.78877 15.3496 2.78877H5.64989C4.06834 2.78877 2.78852 4.06865 2.78852 5.65013V15.3499C2.78852 16.9314 4.06841 18.2112 5.64989 18.2112H13.2963V16.1525C13.2963 14.5777 14.5775 13.2965 16.1523 13.2965H18.211V5.65013ZM14.7124 9.786H6.28714C5.89279 9.786 5.57313 10.1057 5.57313 10.5C5.57313 10.8943 5.89279 11.214 6.28714 11.214H14.7124C15.1067 11.214 15.4264 10.8943 15.4264 10.5C15.4264 10.1057 15.1067 9.786 14.7124 9.786ZM14.7124 5.57338H6.28714C5.89279 5.57338 5.57313 5.89304 5.57313 6.28738C5.57313 6.68173 5.89279 7.00138 6.28714 7.00138H14.7124C15.1067 7.00138 15.4264 6.68173 15.4264 6.28738C15.4264 5.89304 15.1067 5.57338 14.7124 5.57338Z" fill="#FF7300"/>
<path d="M19.639 14.0105V5.65013C19.639 3.27946 17.7205 1.36076 15.3496 1.36076L15.3493 1C17.9195 1 19.9998 3.08052 19.9998 5.65042V14.0108C19.9997 15.2026 19.5347 16.3247 18.692 17.1675L17.1672 18.6922C16.3245 19.5349 15.2024 19.9999 14.0106 20H5.65017C3.08003 20 0.999756 17.9195 0.999756 15.3496V5.65042C0.999756 3.08028 3.08027 1 5.65017 1L5.64989 1.36076L5.42939 1.3664C3.16138 1.48098 1.36052 3.35321 1.36052 5.65013V15.3499C1.36052 17.6466 3.16119 19.519 5.42939 19.6336L5.64989 19.6392H14.0103L14.2154 19.6345C15.1667 19.588 16.0587 19.2184 16.7642 18.5786L16.9123 18.4372L18.4369 16.9125C19.1636 16.1859 19.5845 15.2349 19.6343 14.2156L19.639 14.0105ZM12.9358 16.1528C12.9358 14.3788 14.3785 12.9361 16.1526 12.9361L16.1523 13.2965L16.0051 13.3006C14.4984 13.3774 13.2963 14.6271 13.2963 16.1525V18.2112H5.64989L5.65017 17.8505H12.9358V16.1528ZM16.1523 14.7245H18.1152C17.9938 15.1658 17.7596 15.5703 17.4272 15.9028L15.9025 17.4274L15.7749 17.547C15.4687 17.8163 15.1105 18.0092 14.7243 18.1154V16.1525C14.7243 15.4145 15.2871 14.8058 16.006 14.7323L16.1523 14.7245ZM5.21237 14.7126C5.21237 14.119 5.69355 13.6379 6.28714 13.6379V13.9986L6.21386 14.0024C5.85394 14.0391 5.57313 14.343 5.57313 14.7126L5.57689 14.7859C5.61113 15.1217 5.87804 15.3886 6.21386 15.4229L6.28714 15.4266H10.4998L10.573 15.4229C10.9089 15.3886 11.1758 15.1217 11.21 14.7859L11.2138 14.7126C11.2138 14.343 10.9329 14.0391 10.573 14.0024L10.4998 13.9986V13.6379C11.0933 13.6379 11.5745 14.119 11.5745 14.7126C11.5745 15.3062 11.0933 15.7874 10.4998 15.7874H6.28714C5.69355 15.7874 5.21237 15.3062 5.21237 14.7126ZM10.4998 13.6379V13.9986H6.28714V13.6379H10.4998ZM17.8502 5.65042C17.8502 4.26811 16.7316 3.14953 15.3493 3.14953H5.65017C4.26787 3.14953 3.14928 4.26817 3.14928 5.65042V15.3496C3.14928 16.7319 4.26793 17.8505 5.65017 17.8505L5.64989 18.2112L5.50267 18.2075C4.03849 18.1334 2.86631 16.9613 2.79228 15.4971L2.78852 15.3499V5.65013C2.78852 4.11803 3.98967 2.86902 5.50267 2.79252L5.64989 2.78877H15.3496C16.9311 2.78877 18.211 4.06858 18.211 5.65013V13.2965H16.1523L16.1526 12.9361H17.8502V5.65042ZM5.21237 10.5C5.21237 9.90641 5.69355 9.42524 6.28714 9.42524V9.786C5.89279 9.786 5.57313 10.1057 5.57313 10.5L5.57689 10.5733C5.61113 10.9091 5.87804 11.176 6.21386 11.2102L6.28714 11.214H14.7124C15.082 11.214 15.3859 10.9332 15.4226 10.5733L15.4264 10.5C15.4264 10.1304 15.1456 9.82645 14.7857 9.78975L14.7124 9.786L14.7124 9.42524C15.306 9.42524 15.7871 9.90641 15.7871 10.5C15.7871 11.0936 15.306 11.5748 14.7124 11.5748H6.28714C5.69355 11.5748 5.21237 11.0936 5.21237 10.5ZM14.7124 9.42524L14.7124 9.786H6.28714V9.42524H14.7124ZM5.21237 6.28738C5.21237 5.6938 5.69355 5.21262 6.28714 5.21262V5.57338C5.89279 5.57338 5.57313 5.89304 5.57313 6.28738L5.57689 6.36066C5.61113 6.69648 5.87804 6.96339 6.21386 6.99763L6.28714 7.00138H14.7124C15.082 7.00138 15.3859 6.72057 15.4226 6.36066L15.4264 6.28738C15.4264 5.91778 15.1456 5.61383 14.7857 5.57714L14.7124 5.57338L14.7124 5.21262C15.306 5.21262 15.7871 5.6938 15.7871 6.28738C15.7871 6.88097 15.306 7.36214 14.7124 7.36214H6.28714C5.69355 7.36214 5.21237 6.88097 5.21237 6.28738ZM14.7124 5.21262L14.7124 5.57338H6.28714V5.21262H14.7124ZM15.3493 1L15.3496 1.36076H5.64989L5.65017 1H15.3493ZM15.0853 17.5855C15.2893 17.4782 15.4789 17.3404 15.6472 17.1722L17.1719 15.6474C17.3402 15.4791 17.478 15.2895 17.5853 15.0856H16.1526C15.5644 15.0856 15.0853 15.5647 15.0853 16.1528V17.5855Z" fill="#FF7300"/>
</g>
<defs>
<clipPath id="clip0_260_211">
<rect width="20" height="20" fill="white" transform="translate(-0.000244141 0.5)"/>
</clipPath>
</defs>
</svg>
