<svg width="24" height="24" viewBox="0 0 24 24" fill="none" xmlns="http://www.w3.org/2000/svg">
<g clip-path="url(#clip0_260_225)">
<mask id="path-1-outside-1_260_225" maskUnits="userSpaceOnUse" x="-1.04712" y="0.546875" width="26" height="23" fill="black">
<rect fill="white" x="-1.04712" y="0.546875" width="26" height="23"/>
<path d="M17.672 1.75452C17.5401 1.62158 17.3603 1.54688 17.173 1.54688C16.9857 1.54688 16.8061 1.62177 16.6741 1.7547L14.5969 3.84797C14.4594 3.98639 14.2768 4.06275 14.0831 4.06275C13.9355 4.06275 10.4051 4.06275 9.78635 4.06275C9.59244 4.06275 9.41007 3.98639 9.27127 3.84687L7.23056 1.80048C7.09872 1.66809 6.91946 1.59375 6.73269 1.59375C6.73251 1.59375 6.73214 1.59375 6.73196 1.59375C6.54483 1.59393 6.36557 1.66882 6.23373 1.80158L0.156999 7.92317C-0.115646 8.19783 -0.115097 8.64113 0.15828 8.91523L1.90108 10.6613C2.23122 10.994 2.41304 11.4366 2.41304 11.9077C2.41304 12.5173 2.58407 13.1003 2.90194 13.6026C2.21016 14.4437 2.25484 15.6966 3.0367 16.4841C3.41518 16.8655 3.91085 17.086 4.44241 17.112C4.46676 17.6261 4.6733 18.133 5.06222 18.5246C5.4407 18.906 5.93637 19.1265 6.46811 19.1525C6.49228 19.6667 6.699 20.1735 7.08774 20.5652C7.69986 21.1819 8.57822 21.3373 9.31998 21.0709C9.42215 21.3661 9.58988 21.6429 9.82352 21.8782C10.6583 22.7194 12.012 22.7196 12.847 21.8782L13.1438 21.5794C13.3293 21.3924 13.473 21.1791 13.5755 20.9515C14.4059 21.6852 15.6858 21.6689 16.495 20.8537C16.8839 20.4621 17.0904 19.9552 17.1146 19.4411C17.6462 19.4153 18.142 19.1946 18.5205 18.8132C18.9094 18.4215 19.116 17.9147 19.1403 17.4005C19.6717 17.3747 20.1675 17.1541 20.546 16.7729C21.3235 15.9897 21.3724 14.7462 20.6927 13.9051C21.188 13.2072 21.4562 12.3743 21.4562 11.4996C21.4562 11.2947 21.5384 11.0944 21.6818 10.9499L23.7487 8.86689C24.0208 8.59279 24.0208 8.1504 23.7487 7.87629L17.672 1.75452ZM4.03481 14.4436L5.04757 13.4233C5.33193 13.1367 5.79043 13.1366 6.07498 13.4233C6.36245 13.7128 6.36245 14.1837 6.07498 14.473L5.06222 15.4935C4.77767 15.7801 4.31936 15.7801 4.03481 15.4935C3.74752 15.204 3.74752 14.7331 4.03481 14.4436ZM6.06033 16.4841L8.08585 14.4436C8.37039 14.157 8.82889 14.1568 9.11344 14.4436C9.40073 14.7331 9.40073 15.204 9.11344 15.4935C8.39145 16.2208 8.353 16.2594 7.08774 17.534C6.80319 17.8204 6.34488 17.8206 6.06033 17.5338C5.77304 17.2445 5.77304 16.7736 6.06033 16.4841ZM8.08585 19.5744C7.79855 19.2851 7.79855 18.8141 8.08585 18.5246L9.0986 17.5044C9.38315 17.2178 9.84165 17.2178 10.1262 17.5044C10.3915 17.7717 10.4113 18.1934 10.1864 18.4845C10.1245 18.5417 10.2166 18.4497 9.11344 19.5744C8.82889 19.8611 8.37057 19.8613 8.08585 19.5744ZM12.1458 20.5886L11.849 20.8874C11.5645 21.1742 11.1062 21.1742 10.8216 20.8874C10.5598 20.6238 10.5373 20.2097 10.7526 19.9193C11.1386 19.5291 11.1197 19.5522 11.1869 19.4786C11.474 19.2528 11.884 19.2752 12.1458 19.5388C12.4331 19.8283 12.433 20.2993 12.1458 20.5886ZM19.5481 15.7821C19.2635 16.0686 18.805 16.0686 18.5205 15.7821L17.2111 14.463C16.9375 14.1874 16.4922 14.1858 16.2167 14.4593C15.9411 14.7329 15.9394 15.178 16.213 15.4536L17.5226 16.7727C17.8099 17.0622 17.8099 17.5331 17.5226 17.8224C17.238 18.1092 16.7795 18.1092 16.495 17.8224L15.1856 16.5033C14.9118 16.2277 14.4667 16.2261 14.1911 16.4997C13.9156 16.7732 13.9139 17.2185 14.1875 17.4941L15.4969 18.8132C15.7843 19.1027 15.7843 19.5736 15.4969 19.8629C15.2125 20.1497 14.754 20.1497 14.4693 19.8629C13.0909 18.4856 13.157 18.5158 13.0182 18.432C12.66 18.1236 12.2163 17.9449 11.7436 17.9207C11.7181 17.4086 11.5116 16.904 11.1243 16.5136C10.9256 16.3136 10.6946 16.158 10.4431 16.0514C10.92 15.2306 10.8095 14.1561 10.1114 13.453C9.39578 12.7321 8.32535 12.6447 7.52719 13.1122C7.42374 12.8652 7.27267 12.6336 7.07309 12.4327C6.23813 11.5915 4.88461 11.5915 4.04946 12.4327L3.9374 12.5457C3.86013 12.345 3.8193 12.1295 3.8193 11.9077C3.8193 11.0629 3.49245 10.2686 2.89773 9.66926L1.64803 8.41719L6.73379 3.2937L8.27444 4.83857C8.61868 5.18537 9.06015 5.39869 9.53714 5.45399L6.39505 9.22432C6.14657 9.52278 6.18686 9.96608 6.48513 10.2146C7.20639 10.8157 8.11862 11.1001 9.05374 11.0151C9.98868 10.9301 10.8348 10.4861 11.4367 9.76375C11.6885 9.46162 12.112 9.37062 12.467 9.54201C13.1916 9.8921 13.9879 10.0199 14.7712 9.91994L19.5481 14.7321C19.8354 15.0216 19.8354 15.4926 19.5481 15.7821ZM20.6839 9.95912C20.275 10.3709 20.05 10.918 20.05 11.4996C20.05 11.9903 19.9227 12.4609 19.685 12.874L16.2652 9.42903C16.9643 9.04011 17.5376 8.45546 17.9179 7.73072C18.0983 7.38685 17.9657 6.96186 17.6218 6.7815C17.2779 6.60096 16.8529 6.73353 16.6726 7.0774C16.291 7.8047 15.636 8.29011 14.9023 8.46992C14.8701 8.47486 14.8381 8.48182 14.8067 8.49134C14.243 8.60798 13.6385 8.54628 13.0788 8.27583C12.1415 7.82301 11.0221 8.06471 10.3556 8.86451C9.99491 9.29719 9.48734 9.56361 8.92648 9.6147C8.6077 9.64363 8.29349 9.60097 8.00198 9.49275L11.2571 5.58619C11.5121 5.50837 11.7765 5.46296 12.0431 5.46296H14.0831C14.6544 5.46296 15.1913 5.24506 15.595 4.83857L17.1732 3.24811L22.2591 8.37159L20.6839 9.95912Z"/>
</mask>
<path d="M17.672 1.75452C17.5401 1.62158 17.3603 1.54688 17.173 1.54688C16.9857 1.54688 16.8061 1.62177 16.6741 1.7547L14.5969 3.84797C14.4594 3.98639 14.2768 4.06275 14.0831 4.06275C13.9355 4.06275 10.4051 4.06275 9.78635 4.06275C9.59244 4.06275 9.41007 3.98639 9.27127 3.84687L7.23056 1.80048C7.09872 1.66809 6.91946 1.59375 6.73269 1.59375C6.73251 1.59375 6.73214 1.59375 6.73196 1.59375C6.54483 1.59393 6.36557 1.66882 6.23373 1.80158L0.156999 7.92317C-0.115646 8.19783 -0.115097 8.64113 0.15828 8.91523L1.90108 10.6613C2.23122 10.994 2.41304 11.4366 2.41304 11.9077C2.41304 12.5173 2.58407 13.1003 2.90194 13.6026C2.21016 14.4437 2.25484 15.6966 3.0367 16.4841C3.41518 16.8655 3.91085 17.086 4.44241 17.112C4.46676 17.6261 4.6733 18.133 5.06222 18.5246C5.4407 18.906 5.93637 19.1265 6.46811 19.1525C6.49228 19.6667 6.699 20.1735 7.08774 20.5652C7.69986 21.1819 8.57822 21.3373 9.31998 21.0709C9.42215 21.3661 9.58988 21.6429 9.82352 21.8782C10.6583 22.7194 12.012 22.7196 12.847 21.8782L13.1438 21.5794C13.3293 21.3924 13.473 21.1791 13.5755 20.9515C14.4059 21.6852 15.6858 21.6689 16.495 20.8537C16.8839 20.4621 17.0904 19.9552 17.1146 19.4411C17.6462 19.4153 18.142 19.1946 18.5205 18.8132C18.9094 18.4215 19.116 17.9147 19.1403 17.4005C19.6717 17.3747 20.1675 17.1541 20.546 16.7729C21.3235 15.9897 21.3724 14.7462 20.6927 13.9051C21.188 13.2072 21.4562 12.3743 21.4562 11.4996C21.4562 11.2947 21.5384 11.0944 21.6818 10.9499L23.7487 8.86689C24.0208 8.59279 24.0208 8.1504 23.7487 7.87629L17.672 1.75452ZM4.03481 14.4436L5.04757 13.4233C5.33193 13.1367 5.79043 13.1366 6.07498 13.4233C6.36245 13.7128 6.36245 14.1837 6.07498 14.473L5.06222 15.4935C4.77767 15.7801 4.31936 15.7801 4.03481 15.4935C3.74752 15.204 3.74752 14.7331 4.03481 14.4436ZM6.06033 16.4841L8.08585 14.4436C8.37039 14.157 8.82889 14.1568 9.11344 14.4436C9.40073 14.7331 9.40073 15.204 9.11344 15.4935C8.39145 16.2208 8.353 16.2594 7.08774 17.534C6.80319 17.8204 6.34488 17.8206 6.06033 17.5338C5.77304 17.2445 5.77304 16.7736 6.06033 16.4841ZM8.08585 19.5744C7.79855 19.2851 7.79855 18.8141 8.08585 18.5246L9.0986 17.5044C9.38315 17.2178 9.84165 17.2178 10.1262 17.5044C10.3915 17.7717 10.4113 18.1934 10.1864 18.4845C10.1245 18.5417 10.2166 18.4497 9.11344 19.5744C8.82889 19.8611 8.37057 19.8613 8.08585 19.5744ZM12.1458 20.5886L11.849 20.8874C11.5645 21.1742 11.1062 21.1742 10.8216 20.8874C10.5598 20.6238 10.5373 20.2097 10.7526 19.9193C11.1386 19.5291 11.1197 19.5522 11.1869 19.4786C11.474 19.2528 11.884 19.2752 12.1458 19.5388C12.4331 19.8283 12.433 20.2993 12.1458 20.5886ZM19.5481 15.7821C19.2635 16.0686 18.805 16.0686 18.5205 15.7821L17.2111 14.463C16.9375 14.1874 16.4922 14.1858 16.2167 14.4593C15.9411 14.7329 15.9394 15.178 16.213 15.4536L17.5226 16.7727C17.8099 17.0622 17.8099 17.5331 17.5226 17.8224C17.238 18.1092 16.7795 18.1092 16.495 17.8224L15.1856 16.5033C14.9118 16.2277 14.4667 16.2261 14.1911 16.4997C13.9156 16.7732 13.9139 17.2185 14.1875 17.4941L15.4969 18.8132C15.7843 19.1027 15.7843 19.5736 15.4969 19.8629C15.2125 20.1497 14.754 20.1497 14.4693 19.8629C13.0909 18.4856 13.157 18.5158 13.0182 18.432C12.66 18.1236 12.2163 17.9449 11.7436 17.9207C11.7181 17.4086 11.5116 16.904 11.1243 16.5136C10.9256 16.3136 10.6946 16.158 10.4431 16.0514C10.92 15.2306 10.8095 14.1561 10.1114 13.453C9.39578 12.7321 8.32535 12.6447 7.52719 13.1122C7.42374 12.8652 7.27267 12.6336 7.07309 12.4327C6.23813 11.5915 4.88461 11.5915 4.04946 12.4327L3.9374 12.5457C3.86013 12.345 3.8193 12.1295 3.8193 11.9077C3.8193 11.0629 3.49245 10.2686 2.89773 9.66926L1.64803 8.41719L6.73379 3.2937L8.27444 4.83857C8.61868 5.18537 9.06015 5.39869 9.53714 5.45399L6.39505 9.22432C6.14657 9.52278 6.18686 9.96608 6.48513 10.2146C7.20639 10.8157 8.11862 11.1001 9.05374 11.0151C9.98868 10.9301 10.8348 10.4861 11.4367 9.76375C11.6885 9.46162 12.112 9.37062 12.467 9.54201C13.1916 9.8921 13.9879 10.0199 14.7712 9.91994L19.5481 14.7321C19.8354 15.0216 19.8354 15.4926 19.5481 15.7821ZM20.6839 9.95912C20.275 10.3709 20.05 10.918 20.05 11.4996C20.05 11.9903 19.9227 12.4609 19.685 12.874L16.2652 9.42903C16.9643 9.04011 17.5376 8.45546 17.9179 7.73072C18.0983 7.38685 17.9657 6.96186 17.6218 6.7815C17.2779 6.60096 16.8529 6.73353 16.6726 7.0774C16.291 7.8047 15.636 8.29011 14.9023 8.46992C14.8701 8.47486 14.8381 8.48182 14.8067 8.49134C14.243 8.60798 13.6385 8.54628 13.0788 8.27583C12.1415 7.82301 11.0221 8.06471 10.3556 8.86451C9.99491 9.29719 9.48734 9.56361 8.92648 9.6147C8.6077 9.64363 8.29349 9.60097 8.00198 9.49275L11.2571 5.58619C11.5121 5.50837 11.7765 5.46296 12.0431 5.46296H14.0831C14.6544 5.46296 15.1913 5.24506 15.595 4.83857L17.1732 3.24811L22.2591 8.37159L20.6839 9.95912Z" fill="#FF7300"/>
<path d="M17.672 1.75452C17.5401 1.62158 17.3603 1.54688 17.173 1.54688C16.9857 1.54688 16.8061 1.62177 16.6741 1.7547L14.5969 3.84797C14.4594 3.98639 14.2768 4.06275 14.0831 4.06275C13.9355 4.06275 10.4051 4.06275 9.78635 4.06275C9.59244 4.06275 9.41007 3.98639 9.27127 3.84687L7.23056 1.80048C7.09872 1.66809 6.91946 1.59375 6.73269 1.59375C6.73251 1.59375 6.73214 1.59375 6.73196 1.59375C6.54483 1.59393 6.36557 1.66882 6.23373 1.80158L0.156999 7.92317C-0.115646 8.19783 -0.115097 8.64113 0.15828 8.91523L1.90108 10.6613C2.23122 10.994 2.41304 11.4366 2.41304 11.9077C2.41304 12.5173 2.58407 13.1003 2.90194 13.6026C2.21016 14.4437 2.25484 15.6966 3.0367 16.4841C3.41518 16.8655 3.91085 17.086 4.44241 17.112C4.46676 17.6261 4.6733 18.133 5.06222 18.5246C5.4407 18.906 5.93637 19.1265 6.46811 19.1525C6.49228 19.6667 6.699 20.1735 7.08774 20.5652C7.69986 21.1819 8.57822 21.3373 9.31998 21.0709C9.42215 21.3661 9.58988 21.6429 9.82352 21.8782C10.6583 22.7194 12.012 22.7196 12.847 21.8782L13.1438 21.5794C13.3293 21.3924 13.473 21.1791 13.5755 20.9515C14.4059 21.6852 15.6858 21.6689 16.495 20.8537C16.8839 20.4621 17.0904 19.9552 17.1146 19.4411C17.6462 19.4153 18.142 19.1946 18.5205 18.8132C18.9094 18.4215 19.116 17.9147 19.1403 17.4005C19.6717 17.3747 20.1675 17.1541 20.546 16.7729C21.3235 15.9897 21.3724 14.7462 20.6927 13.9051C21.188 13.2072 21.4562 12.3743 21.4562 11.4996C21.4562 11.2947 21.5384 11.0944 21.6818 10.9499L23.7487 8.86689C24.0208 8.59279 24.0208 8.1504 23.7487 7.87629L17.672 1.75452ZM4.03481 14.4436L5.04757 13.4233C5.33193 13.1367 5.79043 13.1366 6.07498 13.4233C6.36245 13.7128 6.36245 14.1837 6.07498 14.473L5.06222 15.4935C4.77767 15.7801 4.31936 15.7801 4.03481 15.4935C3.74752 15.204 3.74752 14.7331 4.03481 14.4436ZM6.06033 16.4841L8.08585 14.4436C8.37039 14.157 8.82889 14.1568 9.11344 14.4436C9.40073 14.7331 9.40073 15.204 9.11344 15.4935C8.39145 16.2208 8.353 16.2594 7.08774 17.534C6.80319 17.8204 6.34488 17.8206 6.06033 17.5338C5.77304 17.2445 5.77304 16.7736 6.06033 16.4841ZM8.08585 19.5744C7.79855 19.2851 7.79855 18.8141 8.08585 18.5246L9.0986 17.5044C9.38315 17.2178 9.84165 17.2178 10.1262 17.5044C10.3915 17.7717 10.4113 18.1934 10.1864 18.4845C10.1245 18.5417 10.2166 18.4497 9.11344 19.5744C8.82889 19.8611 8.37057 19.8613 8.08585 19.5744ZM12.1458 20.5886L11.849 20.8874C11.5645 21.1742 11.1062 21.1742 10.8216 20.8874C10.5598 20.6238 10.5373 20.2097 10.7526 19.9193C11.1386 19.5291 11.1197 19.5522 11.1869 19.4786C11.474 19.2528 11.884 19.2752 12.1458 19.5388C12.4331 19.8283 12.433 20.2993 12.1458 20.5886ZM19.5481 15.7821C19.2635 16.0686 18.805 16.0686 18.5205 15.7821L17.2111 14.463C16.9375 14.1874 16.4922 14.1858 16.2167 14.4593C15.9411 14.7329 15.9394 15.178 16.213 15.4536L17.5226 16.7727C17.8099 17.0622 17.8099 17.5331 17.5226 17.8224C17.238 18.1092 16.7795 18.1092 16.495 17.8224L15.1856 16.5033C14.9118 16.2277 14.4667 16.2261 14.1911 16.4997C13.9156 16.7732 13.9139 17.2185 14.1875 17.4941L15.4969 18.8132C15.7843 19.1027 15.7843 19.5736 15.4969 19.8629C15.2125 20.1497 14.754 20.1497 14.4693 19.8629C13.0909 18.4856 13.157 18.5158 13.0182 18.432C12.66 18.1236 12.2163 17.9449 11.7436 17.9207C11.7181 17.4086 11.5116 16.904 11.1243 16.5136C10.9256 16.3136 10.6946 16.158 10.4431 16.0514C10.92 15.2306 10.8095 14.1561 10.1114 13.453C9.39578 12.7321 8.32535 12.6447 7.52719 13.1122C7.42374 12.8652 7.27267 12.6336 7.07309 12.4327C6.23813 11.5915 4.88461 11.5915 4.04946 12.4327L3.9374 12.5457C3.86013 12.345 3.8193 12.1295 3.8193 11.9077C3.8193 11.0629 3.49245 10.2686 2.89773 9.66926L1.64803 8.41719L6.73379 3.2937L8.27444 4.83857C8.61868 5.18537 9.06015 5.39869 9.53714 5.45399L6.39505 9.22432C6.14657 9.52278 6.18686 9.96608 6.48513 10.2146C7.20639 10.8157 8.11862 11.1001 9.05374 11.0151C9.98868 10.9301 10.8348 10.4861 11.4367 9.76375C11.6885 9.46162 12.112 9.37062 12.467 9.54201C13.1916 9.8921 13.9879 10.0199 14.7712 9.91994L19.5481 14.7321C19.8354 15.0216 19.8354 15.4926 19.5481 15.7821ZM20.6839 9.95912C20.275 10.3709 20.05 10.918 20.05 11.4996C20.05 11.9903 19.9227 12.4609 19.685 12.874L16.2652 9.42903C16.9643 9.04011 17.5376 8.45546 17.9179 7.73072C18.0983 7.38685 17.9657 6.96186 17.6218 6.7815C17.2779 6.60096 16.8529 6.73353 16.6726 7.0774C16.291 7.8047 15.636 8.29011 14.9023 8.46992C14.8701 8.47486 14.8381 8.48182 14.8067 8.49134C14.243 8.60798 13.6385 8.54628 13.0788 8.27583C12.1415 7.82301 11.0221 8.06471 10.3556 8.86451C9.99491 9.29719 9.48734 9.56361 8.92648 9.6147C8.6077 9.64363 8.29349 9.60097 8.00198 9.49275L11.2571 5.58619C11.5121 5.50837 11.7765 5.46296 12.0431 5.46296H14.0831C14.6544 5.46296 15.1913 5.24506 15.595 4.83857L17.1732 3.24811L22.2591 8.37159L20.6839 9.95912Z" stroke="#FF7300" stroke-width="0.2" mask="url(#path-1-outside-1_260_225)"/>
</g>
<defs>
<clipPath id="clip0_260_225">
<rect width="24" height="24" fill="white" transform="translate(-0.000244141)"/>
</clipPath>
</defs>
</svg>
