<svg width="125" height="40" viewBox="0 0 125 40" fill="none" xmlns="http://www.w3.org/2000/svg">
<rect width="125" height="40" rx="2" fill="#00CD59"/>
<rect x="8" y="11.5" width="17" height="17" rx="1.0625" fill="white"/>
<path fill-rule="evenodd" clip-rule="evenodd" d="M16.5 14.6875C19.4292 14.6875 21.8125 16.6213 21.8125 18.9986C21.8125 19.9502 21.4439 20.8068 20.6736 21.6509C19.5593 22.9338 17.0671 24.4964 16.5 24.7354C15.9488 24.9679 16.0126 24.6046 16.0378 24.4612L16.0398 24.4492L16.1155 23.9943C16.1334 23.8589 16.152 23.6484 16.0982 23.5142C16.0385 23.3661 15.8034 23.2891 15.6307 23.2519C13.0774 22.9152 11.1875 21.1296 11.1875 18.9986C11.1875 16.6213 13.5715 14.6875 16.5 14.6875ZM14.5224 19.7915H13.5097V17.9534C13.5097 17.926 13.4989 17.8998 13.4796 17.8803C13.4603 17.8609 13.4342 17.8499 13.4068 17.8498H13.0336C13.02 17.8498 13.0065 17.8524 12.994 17.8577C12.9814 17.8629 12.97 17.8705 12.9603 17.8801C12.9507 17.8897 12.9431 17.9011 12.9379 17.9137C12.9327 17.9263 12.93 17.9398 12.93 17.9534V20.2683C12.93 20.2955 12.9413 20.3214 12.9592 20.3393V20.34L12.9605 20.3413L12.9619 20.3427C12.9811 20.3612 13.0069 20.3714 13.0336 20.3712H14.5224C14.5795 20.3712 14.6254 20.3247 14.6254 20.2676V19.8957C14.6254 19.8821 14.6228 19.8686 14.6177 19.856C14.6126 19.8434 14.605 19.832 14.5955 19.8223C14.5859 19.8126 14.5746 19.8049 14.562 19.7996C14.5495 19.7943 14.536 19.7916 14.5224 19.7915ZM15.0477 17.8498H15.4209C15.478 17.8498 15.5238 17.8963 15.5238 17.9534V20.2683C15.5238 20.3254 15.4773 20.3712 15.4209 20.3712H15.0477C15.0203 20.3712 14.9941 20.3604 14.9747 20.3411C14.9553 20.3218 14.9443 20.2956 14.9441 20.2683V17.9534C14.9441 17.8963 14.9906 17.8498 15.0477 17.8498ZM17.613 17.8498H17.9848C18.0426 17.8498 18.0891 17.8963 18.0891 17.9534V20.2683C18.0891 20.3254 18.0426 20.3712 17.9855 20.3712H17.613C17.604 20.3713 17.5951 20.3701 17.5864 20.3679H17.5851C17.5826 20.3671 17.5802 20.3662 17.5778 20.3652L17.5745 20.3639L17.5698 20.3619C17.568 20.3612 17.5662 20.3603 17.5645 20.3593L17.5625 20.3586L17.5559 20.3546L17.5552 20.3539C17.5448 20.347 17.5358 20.3382 17.5286 20.328L16.4661 18.8937V20.2683C16.4662 20.2819 16.4636 20.2953 16.4585 20.3079C16.4534 20.3204 16.4458 20.3319 16.4362 20.3415C16.4267 20.3511 16.4153 20.3588 16.4027 20.364C16.3902 20.3692 16.3768 20.3719 16.3632 20.3719H15.9907C15.9633 20.3719 15.9371 20.3611 15.9176 20.3418C15.8982 20.3225 15.8872 20.2963 15.8871 20.2689V17.9534C15.8871 17.8963 15.9336 17.8498 15.9907 17.8498H16.3672L16.3705 17.8504H16.3745L16.3765 17.8511H16.3805L16.3871 17.8531H16.3884L16.3898 17.8538L16.3964 17.8557L16.3997 17.8571C16.4018 17.8578 16.4038 17.8587 16.4057 17.8597L16.4077 17.8604L16.409 17.8611C16.412 17.8626 16.4149 17.8644 16.4177 17.8664L16.4196 17.8677L16.423 17.8697V17.8704C16.4243 17.8704 16.425 17.8717 16.4256 17.8723C16.4275 17.8736 16.4292 17.8749 16.4309 17.8763L16.4329 17.8783C16.4386 17.8835 16.4437 17.8893 16.4482 17.8956L17.5094 19.3293V17.9534C17.5094 17.8963 17.5559 17.8498 17.613 17.8498ZM20.1464 18.3259C20.1464 18.383 20.0999 18.4295 20.0434 18.4295H19.0301V18.8213H20.0428C20.0999 18.8213 20.1457 18.8678 20.1457 18.9242V19.2968C20.1457 19.3539 20.0992 19.4004 20.0428 19.4004H19.0301V19.7921H20.0428C20.0999 19.7921 20.1457 19.8386 20.1457 19.8951V20.2676C20.1457 20.3247 20.0992 20.3712 20.0428 20.3712H18.5539C18.5404 20.3713 18.527 20.3687 18.5144 20.3635C18.5019 20.3584 18.4905 20.3509 18.4809 20.3413L18.4796 20.3393C18.461 20.3203 18.4506 20.2949 18.4504 20.2683V17.9534C18.4504 17.9255 18.4616 17.9002 18.4789 17.8823L18.4809 17.8803L18.4816 17.8796C18.5008 17.8605 18.5268 17.8498 18.5539 17.8498H20.0428C20.0999 17.8498 20.1457 17.8963 20.1457 17.9534V18.3259H20.1464Z" fill="#00CD59"/>
<path d="M30.092 25V16.108H31.868V23.512H35.48V25H30.092ZM37.0295 25V16.108H38.8055V25H37.0295ZM40.9904 25V16.108H42.8024L45.3824 20.848L46.2824 22.768H46.3424C46.2944 22.304 46.2424 21.796 46.1864 21.244C46.1304 20.692 46.1024 20.164 46.1024 19.66V16.108H47.7824V25H45.9704L43.4144 20.248L42.5144 18.34H42.4544C42.4944 18.82 42.5424 19.328 42.5984 19.864C42.6544 20.4 42.6824 20.924 42.6824 21.436V25H40.9904ZM49.9787 25V16.108H55.4267V17.596H51.7547V19.648H54.8627V21.136H51.7547V23.512H55.5587V25H49.9787ZM57.0975 16.768C57.3375 16.76 57.5655 16.752 57.7815 16.744C57.9975 16.728 58.1615 16.716 58.2735 16.708C58.5215 16.692 58.8255 16.668 59.1855 16.636C59.5535 16.596 59.9615 16.556 60.4095 16.516C60.8655 16.476 61.3495 16.436 61.8615 16.396C62.3735 16.356 62.9055 16.312 63.4575 16.264C63.8735 16.224 64.2855 16.192 64.6935 16.168C65.1095 16.136 65.5015 16.112 65.8695 16.096C66.2455 16.072 66.5735 16.056 66.8535 16.048L66.8655 17.584C66.6495 17.584 66.4015 17.588 66.1215 17.596C65.8415 17.604 65.5615 17.62 65.2815 17.644C65.0095 17.66 64.7655 17.696 64.5495 17.752C64.1895 17.848 63.8535 18.012 63.5415 18.244C63.2295 18.468 62.9575 18.736 62.7255 19.048C62.5015 19.352 62.3255 19.684 62.1975 20.044C62.0695 20.396 62.0055 20.752 62.0055 21.112C62.0055 21.504 62.0735 21.852 62.2095 22.156C62.3535 22.452 62.5455 22.708 62.7855 22.924C63.0335 23.132 63.3215 23.308 63.6495 23.452C63.9775 23.588 64.3295 23.692 64.7055 23.764C65.0895 23.836 65.4855 23.884 65.8935 23.908L65.3295 25.552C64.8255 25.52 64.3335 25.44 63.8535 25.312C63.3815 25.184 62.9375 25.008 62.5215 24.784C62.1055 24.56 61.7415 24.288 61.4295 23.968C61.1255 23.64 60.8815 23.268 60.6975 22.852C60.5215 22.428 60.4335 21.956 60.4335 21.436C60.4335 20.86 60.5255 20.332 60.7095 19.852C60.8935 19.364 61.1215 18.94 61.3935 18.58C61.6735 18.212 61.9495 17.928 62.2215 17.728C61.9975 17.76 61.7255 17.792 61.4055 17.824C61.0935 17.856 60.7535 17.896 60.3855 17.944C60.0255 17.984 59.6575 18.028 59.2815 18.076C58.9055 18.124 58.5415 18.18 58.1895 18.244C57.8455 18.3 57.5335 18.356 57.2535 18.412L57.0975 16.768ZM65.1495 18.76C65.2535 18.904 65.3615 19.076 65.4735 19.276C65.5935 19.468 65.7095 19.664 65.8215 19.864C65.9335 20.056 66.0295 20.232 66.1095 20.392L65.1975 20.8C65.0455 20.464 64.8975 20.168 64.7535 19.912C64.6175 19.656 64.4535 19.396 64.2615 19.132L65.1495 18.76ZM66.4935 18.208C66.5975 18.352 66.7095 18.52 66.8295 18.712C66.9575 18.896 67.0815 19.088 67.2015 19.288C67.3215 19.48 67.4215 19.652 67.5015 19.804L66.6015 20.236C66.4415 19.916 66.2855 19.632 66.1335 19.384C65.9895 19.136 65.8175 18.88 65.6175 18.616L66.4935 18.208ZM71.0895 14.8L72.5055 15.22C72.2895 15.66 72.0335 16.092 71.7375 16.516C71.4415 16.94 71.1215 17.332 70.7775 17.692C70.4415 18.052 70.1055 18.368 69.7695 18.64C69.6895 18.544 69.5775 18.436 69.4335 18.316C69.2895 18.196 69.1415 18.08 68.9895 17.968C68.8375 17.856 68.7055 17.764 68.5935 17.692C69.1055 17.356 69.5855 16.932 70.0335 16.42C70.4815 15.908 70.8335 15.368 71.0895 14.8ZM70.9935 16.072H79.2615V17.332H70.6455L70.9935 16.072ZM68.8575 18.868H79.7055V20.152H68.8575V18.868ZM69.0495 21.676H79.5255V22.96H69.0495V21.676ZM72.6135 16.516H73.8135V22.348H72.6135V16.516ZM70.4775 16.516H71.7615V22.36H70.4775V16.516ZM74.7015 16.516H75.9015V22.36H74.7015V16.516ZM76.8135 16.516H78.1335V22.36H76.8135V16.516ZM72.2535 23.632L73.5855 23.488C73.6655 23.848 73.7335 24.24 73.7895 24.664C73.8535 25.088 73.8895 25.448 73.8975 25.744L72.4815 25.948C72.4815 25.756 72.4695 25.528 72.4455 25.264C72.4295 25 72.4055 24.724 72.3735 24.436C72.3415 24.148 72.3015 23.88 72.2535 23.632ZM74.6415 23.668L75.9855 23.44C76.0895 23.672 76.1895 23.924 76.2855 24.196C76.3815 24.468 76.4655 24.732 76.5375 24.988C76.6095 25.244 76.6615 25.476 76.6935 25.684L75.2535 25.96C75.2135 25.664 75.1335 25.3 75.0135 24.868C74.9015 24.436 74.7775 24.036 74.6415 23.668ZM77.0175 23.596L78.3975 23.164C78.5895 23.412 78.7815 23.68 78.9735 23.968C79.1655 24.256 79.3495 24.544 79.5255 24.832C79.7015 25.112 79.8375 25.364 79.9335 25.588L78.4575 26.08C78.3695 25.864 78.2455 25.612 78.0855 25.324C77.9335 25.036 77.7615 24.744 77.5695 24.448C77.3855 24.144 77.2015 23.86 77.0175 23.596ZM70.0935 23.212L71.4855 23.56C71.3495 24.016 71.1615 24.472 70.9215 24.928C70.6815 25.384 70.4135 25.772 70.1175 26.092L68.7375 25.528C69.0095 25.272 69.2695 24.932 69.5175 24.508C69.7655 24.084 69.9575 23.652 70.0935 23.212ZM82.5495 14.86H83.8695V26.044H82.5495V14.86ZM80.7255 18.808H85.6455V20.152H80.7255V18.808ZM82.2855 19.516L83.0895 19.912C82.9855 20.312 82.8655 20.736 82.7295 21.184C82.5935 21.624 82.4415 22.064 82.2735 22.504C82.1055 22.944 81.9295 23.36 81.7455 23.752C81.5615 24.136 81.3655 24.472 81.1575 24.76C81.1175 24.608 81.0575 24.444 80.9775 24.268C80.9055 24.084 80.8255 23.904 80.7375 23.728C80.6575 23.552 80.5815 23.4 80.5095 23.272C80.7495 22.976 80.9815 22.612 81.2055 22.18C81.4375 21.74 81.6495 21.288 81.8415 20.824C82.0335 20.352 82.1815 19.916 82.2855 19.516ZM83.8575 20.212C83.9215 20.276 84.0135 20.376 84.1335 20.512C84.2615 20.648 84.4015 20.804 84.5535 20.98C84.7055 21.148 84.8495 21.32 84.9855 21.496C85.1295 21.664 85.2575 21.816 85.3695 21.952C85.4895 22.088 85.5735 22.192 85.6215 22.264L84.7455 23.392C84.6655 23.216 84.5615 23.012 84.4335 22.78C84.3055 22.54 84.1655 22.296 84.0135 22.048C83.8615 21.792 83.7135 21.552 83.5695 21.328C83.4255 21.104 83.3015 20.92 83.1975 20.776L83.8575 20.212ZM80.7135 15.784L81.7215 15.52C81.8255 15.808 81.9175 16.12 81.9975 16.456C82.0855 16.792 82.1575 17.12 82.2135 17.44C82.2695 17.76 82.3095 18.048 82.3335 18.304L81.2535 18.592C81.2455 18.336 81.2135 18.048 81.1575 17.728C81.1095 17.4 81.0455 17.068 80.9655 16.732C80.8935 16.388 80.8095 16.072 80.7135 15.784ZM84.6615 15.46L85.8735 15.724C85.7775 16.052 85.6735 16.388 85.5615 16.732C85.4495 17.076 85.3375 17.408 85.2255 17.728C85.1135 18.04 85.0095 18.316 84.9135 18.556L84.0015 18.292C84.0895 18.036 84.1735 17.744 84.2535 17.416C84.3415 17.08 84.4215 16.74 84.4935 16.396C84.5655 16.052 84.6215 15.74 84.6615 15.46ZM89.2095 14.8H90.5535V26.068H89.2095V14.8ZM85.6215 22.312L91.7895 21.208L92.0055 22.54L85.8375 23.656L85.6215 22.312ZM86.2935 16.432L87.0015 15.46C87.2255 15.588 87.4575 15.736 87.6975 15.904C87.9455 16.072 88.1775 16.244 88.3935 16.42C88.6175 16.596 88.7935 16.76 88.9215 16.912L88.1775 17.992C88.0575 17.832 87.8895 17.66 87.6735 17.476C87.4655 17.292 87.2415 17.108 87.0015 16.924C86.7615 16.74 86.5255 16.576 86.2935 16.432ZM85.7535 19.456L86.4255 18.424C86.6655 18.544 86.9135 18.688 87.1695 18.856C87.4255 19.016 87.6695 19.18 87.9015 19.348C88.1335 19.508 88.3215 19.664 88.4655 19.816L87.7335 20.968C87.6055 20.816 87.4295 20.652 87.2055 20.476C86.9815 20.292 86.7415 20.112 86.4855 19.936C86.2375 19.752 85.9935 19.592 85.7535 19.456ZM98.5335 18.292H102.83V19.6H98.5335V18.292ZM98.5335 21.136H102.83V22.432H98.5335V21.136ZM98.5335 23.968H102.83V25.276H98.5335V23.968ZM97.8495 15.448H103.502V25.9H102.062V16.816H99.2295V25.972H97.8495V15.448ZM92.8095 17.284H97.4175V18.64H92.8095V17.284ZM94.5375 14.8H95.9175V26.068H94.5375V14.8ZM94.4655 18.208L95.3175 18.508C95.2215 18.996 95.1015 19.5 94.9575 20.02C94.8135 20.532 94.6495 21.036 94.4655 21.532C94.2815 22.02 94.0815 22.48 93.8655 22.912C93.6495 23.336 93.4215 23.7 93.1815 24.004C93.1175 23.804 93.0175 23.576 92.8815 23.32C92.7455 23.056 92.6175 22.836 92.4975 22.66C92.7135 22.396 92.9215 22.088 93.1215 21.736C93.3215 21.384 93.5055 21.012 93.6735 20.62C93.8495 20.22 94.0055 19.816 94.1415 19.408C94.2775 18.992 94.3855 18.592 94.4655 18.208ZM95.8215 19.264C95.9095 19.344 96.0375 19.484 96.2055 19.684C96.3735 19.876 96.5495 20.088 96.7335 20.32C96.9255 20.552 97.1015 20.768 97.2615 20.968C97.4295 21.16 97.5455 21.296 97.6095 21.376L96.7815 22.54C96.6935 22.364 96.5815 22.156 96.4455 21.916C96.3095 21.676 96.1615 21.432 96.0015 21.184C95.8415 20.936 95.6855 20.7 95.5335 20.476C95.3895 20.252 95.2655 20.064 95.1615 19.912L95.8215 19.264ZM111.734 18.172L112.622 17.224C112.966 17.416 113.342 17.636 113.75 17.884C114.166 18.132 114.562 18.384 114.938 18.64C115.322 18.888 115.634 19.112 115.874 19.312L114.914 20.404C114.698 20.188 114.406 19.948 114.038 19.684C113.67 19.42 113.282 19.156 112.874 18.892C112.466 18.628 112.086 18.388 111.734 18.172ZM112.562 19.9H113.282V21.724C113.282 21.884 113.306 22.068 113.354 22.276C113.402 22.484 113.482 22.708 113.594 22.948C113.714 23.18 113.878 23.412 114.086 23.644C114.294 23.868 114.554 24.088 114.866 24.304C115.178 24.512 115.55 24.7 115.982 24.868C115.862 25.036 115.718 25.24 115.55 25.48C115.382 25.72 115.25 25.924 115.154 26.092C114.778 25.948 114.438 25.764 114.134 25.54C113.838 25.316 113.582 25.08 113.366 24.832C113.15 24.576 112.974 24.328 112.838 24.088C112.702 23.84 112.606 23.624 112.55 23.44C112.486 23.624 112.378 23.836 112.226 24.076C112.082 24.316 111.89 24.564 111.65 24.82C111.41 25.068 111.126 25.3 110.798 25.516C110.478 25.74 110.11 25.932 109.694 26.092C109.638 25.98 109.562 25.848 109.466 25.696C109.378 25.552 109.282 25.408 109.178 25.264C109.074 25.128 108.978 25.012 108.89 24.916C109.354 24.756 109.75 24.568 110.078 24.352C110.414 24.136 110.694 23.912 110.918 23.68C111.142 23.44 111.318 23.204 111.446 22.972C111.582 22.732 111.674 22.504 111.722 22.288C111.778 22.072 111.806 21.884 111.806 21.724V19.9H112.562ZM111.914 14.8H113.33C113.298 15.52 113.234 16.176 113.138 16.768C113.05 17.36 112.89 17.892 112.658 18.364C112.434 18.828 112.102 19.236 111.662 19.588C111.23 19.94 110.65 20.244 109.922 20.5C109.858 20.324 109.746 20.124 109.586 19.9C109.426 19.668 109.27 19.488 109.118 19.36C109.75 19.168 110.246 18.936 110.606 18.664C110.966 18.384 111.234 18.06 111.41 17.692C111.594 17.316 111.718 16.892 111.782 16.42C111.846 15.94 111.89 15.4 111.914 14.8ZM110.15 15.52L111.326 15.748C111.27 16.156 111.162 16.564 111.002 16.972C110.842 17.38 110.63 17.72 110.366 17.992L109.25 17.5C109.466 17.284 109.654 16.992 109.814 16.624C109.974 16.256 110.086 15.888 110.15 15.52ZM110.006 20.728L111.266 20.98C111.186 21.444 111.05 21.9 110.858 22.348C110.674 22.788 110.434 23.156 110.138 23.452L108.962 22.852C109.218 22.628 109.434 22.32 109.61 21.928C109.794 21.536 109.926 21.136 110.006 20.728ZM114.386 15.436L115.766 15.868C115.566 16.228 115.362 16.584 115.154 16.936C114.954 17.28 114.77 17.576 114.602 17.824L113.522 17.416C113.626 17.24 113.734 17.036 113.846 16.804C113.958 16.572 114.062 16.336 114.158 16.096C114.254 15.856 114.33 15.636 114.386 15.436ZM114.458 20.644L115.874 21.088C115.658 21.456 115.438 21.828 115.214 22.204C114.998 22.58 114.794 22.896 114.602 23.152L113.486 22.744C113.606 22.552 113.726 22.336 113.846 22.096C113.966 21.848 114.078 21.596 114.182 21.34C114.294 21.084 114.386 20.852 114.458 20.644ZM105.194 18.484H108.818V19.576H105.194V18.484ZM105.242 15.184H108.794V16.264H105.242V15.184ZM105.194 20.128H108.818V21.208H105.194V20.128ZM104.63 16.792H109.214V17.932H104.63V16.792ZM105.818 21.784H108.842V25.444H105.818V24.304H107.606V22.924H105.818V21.784ZM105.17 21.784H106.382V25.912H105.17V21.784Z" fill="white"/>
</svg>
