<svg width="40" height="40" viewBox="0 0 40 40" fill="none" xmlns="http://www.w3.org/2000/svg">
<rect width="40" height="40" rx="2" fill="#5C5C5C"/>
<g clip-path="url(#clip0_40_436)">
<path d="M26.1403 16.8875C26.1044 16.8591 23.5 14.9818 22.7851 15.1165C22.4439 15.1769 22.2488 15.4096 21.8572 15.8756C21.7942 15.9508 21.6428 16.1311 21.5251 16.2592C21.2777 16.1785 21.0363 16.0803 20.8028 15.9653C19.5977 15.3786 18.6241 14.4049 18.0374 13.1998C17.9223 12.9664 17.824 12.725 17.7434 12.4775C17.872 12.3594 18.0522 12.208 18.1293 12.1432C18.593 11.7539 18.8262 11.5587 18.8866 11.2166C19.0104 10.5079 17.1344 7.8855 17.1147 7.86187C17.0296 7.74028 16.9185 7.63913 16.7895 7.56573C16.6605 7.49234 16.5168 7.44854 16.3687 7.4375C15.6084 7.4375 13.4375 10.2537 13.4375 10.7279C13.4375 10.7555 13.4773 13.5573 16.9323 17.0717C20.4432 20.5227 23.2445 20.5625 23.2721 20.5625C23.7467 20.5625 26.5625 18.3916 26.5625 17.6312C26.5516 17.4838 26.508 17.3405 26.435 17.2119C26.362 17.0833 26.2614 16.9725 26.1403 16.8875Z" fill="white"/>
</g>
<path d="M11.3551 25.995V24.7273H17.3281V25.995H15.1016V32H13.5817V25.995H11.3551ZM18.3118 32V24.7273H23.2124V25.995H19.8494V27.728H22.9602V28.9957H19.8494V30.7322H23.2266V32H18.3118ZM24.4348 32V24.7273H25.9725V30.7322H29.0904V32H24.4348Z" fill="white"/>
<defs>
<clipPath id="clip0_40_436">
<rect width="14" height="14" fill="white" transform="translate(13 7)"/>
</clipPath>
</defs>
</svg>
