<svg width="32" height="32" viewBox="0 0 32 32" fill="none" xmlns="http://www.w3.org/2000/svg">
<rect width="32" height="32" rx="1.32584" fill="white"/>
<rect x="4" y="4" width="23.8652" height="23.8652" rx="1.49157" fill="white"/>
<path fill-rule="evenodd" clip-rule="evenodd" d="M15.9325 8.47473C20.0446 8.47473 23.3903 11.1894 23.3903 14.5268C23.3903 15.8627 22.873 17.0653 21.7916 18.2501C20.2273 20.0512 16.7286 22.2447 15.9325 22.5804C15.1587 22.9066 15.2482 22.3967 15.2836 22.1953L15.2864 22.1786L15.3927 21.54C15.4179 21.3498 15.444 21.0543 15.3685 20.866C15.2846 20.6581 14.9546 20.5499 14.7122 20.4977C11.1277 20.0251 8.47461 17.5183 8.47461 14.5268C8.47461 11.1894 11.8213 8.47473 15.9325 8.47473ZM13.1563 15.6399H11.7346V13.0595C11.7346 13.021 11.7194 12.9842 11.6924 12.9569C11.6653 12.9297 11.6285 12.9143 11.5901 12.914H11.0662C11.0471 12.914 11.0282 12.9178 11.0106 12.9251C10.9929 12.9324 10.9769 12.9431 10.9634 12.9566C10.9499 12.9701 10.9392 12.9862 10.9319 13.0038C10.9246 13.0214 10.9208 13.0404 10.9208 13.0595V16.3092C10.9208 16.3474 10.9366 16.3838 10.9618 16.409V16.4099L10.9637 16.4118L10.9655 16.4136C10.9926 16.4396 11.0287 16.454 11.0662 16.4537H13.1563C13.2365 16.4537 13.3008 16.3885 13.3008 16.3083V15.7862C13.3009 15.7671 13.2973 15.7482 13.2901 15.7305C13.2829 15.7128 13.2723 15.6967 13.2588 15.6831C13.2454 15.6695 13.2295 15.6587 13.2119 15.6513C13.1943 15.6439 13.1754 15.64 13.1563 15.6399ZM13.8937 12.914H14.4176C14.4978 12.914 14.5621 12.9793 14.5621 13.0595V16.3092C14.5621 16.3894 14.4968 16.4537 14.4176 16.4537H13.8937C13.8553 16.4537 13.8184 16.4385 13.7912 16.4115C13.7639 16.3844 13.7485 16.3476 13.7483 16.3092V13.0595C13.7483 12.9793 13.8135 12.914 13.8937 12.914ZM17.4949 12.914H18.0169C18.0981 12.914 18.1633 12.9793 18.1633 13.0595V16.3092C18.1633 16.3894 18.0981 16.4537 18.0179 16.4537H17.4949C17.4823 16.4538 17.4698 16.4522 17.4576 16.4491H17.4557C17.4523 16.4479 17.4489 16.4467 17.4455 16.4453L17.4408 16.4435L17.4343 16.4407C17.4317 16.4396 17.4292 16.4383 17.4268 16.4369L17.424 16.436L17.4147 16.4304L17.4138 16.4295C17.3993 16.4197 17.3866 16.4074 17.3765 16.3931L15.8849 14.3795V16.3092C15.8851 16.3283 15.8814 16.3472 15.8742 16.3648C15.867 16.3824 15.8564 16.3985 15.8429 16.412C15.8295 16.4255 15.8135 16.4362 15.7959 16.4436C15.7784 16.4509 15.7595 16.4546 15.7404 16.4546H15.2175C15.179 16.4546 15.1422 16.4395 15.1149 16.4124C15.0877 16.3853 15.0723 16.3486 15.072 16.3102V13.0595C15.072 12.9793 15.1373 12.914 15.2175 12.914H15.746L15.7507 12.915H15.7563L15.7591 12.9159H15.7647L15.774 12.9187H15.7759L15.7777 12.9196L15.787 12.9224L15.7917 12.9243C15.7946 12.9254 15.7974 12.9266 15.8001 12.928L15.8029 12.9289L15.8048 12.9299C15.809 12.9321 15.813 12.9346 15.8169 12.9373L15.8197 12.9392L15.8243 12.942V12.9429C15.8262 12.9429 15.8271 12.9448 15.8281 12.9457C15.8307 12.9474 15.8331 12.9493 15.8355 12.9513L15.8383 12.9541C15.8463 12.9614 15.8535 12.9696 15.8598 12.9784L17.3495 14.991V13.0595C17.3495 12.9793 17.4147 12.914 17.4949 12.914ZM21.0514 13.5824C21.0514 13.6626 20.9861 13.7279 20.9069 13.7279H19.4843V14.2779H20.9059C20.9861 14.2779 21.0504 14.3431 21.0504 14.4224V14.9454C21.0504 15.0255 20.9852 15.0908 20.9059 15.0908H19.4843V15.6408H20.9059C20.9861 15.6408 21.0504 15.7061 21.0504 15.7853V16.3083C21.0504 16.3885 20.9852 16.4537 20.9059 16.4537H18.8159C18.7969 16.4538 18.778 16.4502 18.7604 16.443C18.7428 16.4358 18.7268 16.4252 18.7133 16.4118L18.7115 16.409C18.6854 16.3823 18.6707 16.3465 18.6704 16.3092V13.0595C18.6704 13.0203 18.6863 12.9849 18.7105 12.9597L18.7133 12.9569L18.7143 12.956C18.7413 12.9292 18.7778 12.9141 18.8159 12.914H20.9059C20.9861 12.914 21.0504 12.9793 21.0504 13.0595V13.5824H21.0514Z" fill="#00CD59"/>
</svg>
