<svg width="32" height="33" viewBox="0 0 32 33" fill="none" xmlns="http://www.w3.org/2000/svg">
<rect y="0.226562" width="32" height="32" rx="1.11326" fill="white"/>
<path d="M21.7412 19.3932C21.7055 19.3649 19.1167 17.4989 18.4062 17.6328C18.067 17.6928 17.873 17.9242 17.4838 18.3873C17.4212 18.4621 17.2707 18.6413 17.1537 18.7687C16.9078 18.6885 16.6678 18.5908 16.4358 18.4765C15.2379 17.8933 14.2701 16.9255 13.687 15.7277C13.5725 15.4956 13.4749 15.2557 13.3947 15.0097C13.5226 14.8923 13.7017 14.7418 13.7783 14.6775C14.2392 14.2904 14.471 14.0965 14.531 13.7564C14.6541 13.0519 12.7894 10.4453 12.7698 10.4218C12.6852 10.301 12.5748 10.2004 12.4466 10.1275C12.3183 10.0545 12.1755 10.011 12.0284 10C11.2726 10 9.11475 12.7993 9.11475 13.2707C9.11475 13.298 9.15432 16.0829 12.5885 19.5763C16.0783 23.0065 18.8628 23.0461 18.8902 23.0461C19.362 23.0461 22.1608 20.8883 22.1608 20.1324C22.15 19.9858 22.1067 19.8435 22.0341 19.7156C21.9615 19.5878 21.8615 19.4776 21.7412 19.3932Z" fill="#5C5C5C"/>
</svg>
